<?xml version="1.0" encoding="iso-8859-1"?>
<!-- Uploaded to: SVG Repo, www.svgrepo.com, Generator: SVG Repo Mixer Tools -->
<svg height="800px" width="800px" version="1.1" id="Layer_1" xmlns="http://www.w3.org/2000/svg" xmlns:xlink="http://www.w3.org/1999/xlink" 
	 viewBox="0 0 512 512" xml:space="preserve">
<g>
	<path style="fill:#7383BF;" d="M441.379,512H70.621c-9.754,0-17.655-7.901-17.655-17.655V17.655C52.966,7.901,60.866,0,70.621,0
		h370.759c9.754,0,17.655,7.901,17.655,17.655v476.69C459.034,504.099,451.134,512,441.379,512"/>
	<path style="fill:#EDEBDA;" d="M388.414,70.621l-35.31-35.31h-35.31V0h-35.31v26.545c0,9.719-7.874,17.593-17.593,17.593h-17.779
		c-9.719,0-17.593-7.874-17.593-17.593V0h-35.31v35.31H88.276V476.69h335.448V105.931L388.414,70.621z"/>
	<path style="fill:#CEC9AE;" d="M423.724,105.931h-70.621V35.31l35.31,35.31L423.724,105.931z"/>
	<path style="fill:#424A60;" d="M317.793,0h-35.31v26.545c0,9.719-7.874,17.593-17.593,17.593h-17.779
		c-9.719,0-17.593-7.874-17.593-17.593V0h-35.31v53.018c0,9.719,7.874,17.602,17.593,17.602h13.789
		c6.118,10.505,17.373,17.461,30.411,17.655c12.323,0.177,24.294-7.15,30.411-17.655H300.2c9.719,0,17.593-7.883,17.593-17.602V0z"
		/>
	<g>
		<path style="fill:#CEC9AE;" d="M203.034,238.345h105.931c4.882,0,8.828-3.946,8.828-8.828c0-4.882-3.946-8.828-8.828-8.828
			H203.034c-4.882,0-8.828,3.946-8.828,8.828C194.207,234.399,198.153,238.345,203.034,238.345"/>
		<path style="fill:#CEC9AE;" d="M353.103,291.31c0-4.882-3.946-8.828-8.828-8.828H167.724c-4.882,0-8.828,3.946-8.828,8.828
			c0,4.882,3.946,8.828,8.828,8.828h176.552C349.158,300.138,353.103,296.192,353.103,291.31"/>
		<path style="fill:#CEC9AE;" d="M286.855,363.136c-19.606,9.852-26.518,29.414-29.237,49.717c-4.211-4.476-8.422-8.951-13.03-13.03
			c-8.483-7.503-21.01,4.935-12.482,12.491c9.366,8.289,17.117,18.185,26.483,26.483c5.782,5.12,14.716,1.598,15.069-6.25
			c0.892-19.836,2.278-44.209,22.104-54.166C305.923,373.279,296.989,358.042,286.855,363.136"/>
		<path style="fill:#CEC9AE;" d="M387.209,410.44c-4.908-9.154-15.74-15.501-26.253-13.153c-6.691,1.501-12.403,8.307-19.023,9.092
			c-7.477,0.892-13.771-7.821-16.516-13.594c-4.873-10.258-20.1-1.306-15.245,8.907c4.67,9.843,13.921,18.926,24.744,21.592
			c5.394,1.333,10.196,0.759,15.325-1.245c6.453-2.525,16.481-12.456,21.725-2.692C377.34,429.367,392.585,420.46,387.209,410.44"/>
	</g>
</g>
</svg>