<svg width="630" height="630" viewBox="0 0 630 630" fill="none" xmlns="http://www.w3.org/2000/svg">
<path d="M0.71875 0.688354V629.174H629.128V0.688354H0.71875Z" fill="white"/>
<path d="M276.535 572.729L333.011 629.312H264.629L190.753 556.229H234.865C250.587 556.229 265.545 562.517 276.535 572.729ZM256.845 72.9776C281.114 72.9776 301.568 93.4158 301.568 117.761C301.568 142.122 281.114 161.767 256.845 161.767C232.423 161.767 212.885 142.122 212.885 117.761C212.885 93.4158 232.423 72.9776 256.845 72.9776ZM550.673 479.223L534.951 437.583C527.93 420.289 512.208 408.506 492.518 408.506H485.496V49.4103H144.504V248.206H189.226L240.36 184.556C250.587 172.772 266.308 164.911 283.556 164.911H392.845C410.093 164.911 425.052 174.329 432.836 189.272L465.043 250.556C466.722 252.922 467.485 256.067 467.485 259.989C467.485 270.994 458.021 280.428 447.032 280.428C438.331 280.428 432.073 276.489 428.104 269.422L399.103 213.633H351.938L388.113 303.995L399.103 419.511H492.518C507.476 419.511 519.229 428.929 524.724 441.506L534.951 468.233H374.681C362.928 468.233 352.701 459.578 351.938 447.795L340.948 346.428L254.403 525.579C249.824 535.806 238.834 542.873 226.165 542.873H184.495L290.578 323.639L257.608 241.139L226.165 279.634C218.38 289.861 204.948 296.928 190.753 296.928H144.504V556.229L218.38 629.312H0.71875V0.688354H629.281V629.312H558.61L485.496 556.229V479.223H550.673Z" fill="#00B06B"/>
</svg>
